<?xml version="1.0" encoding="utf-8"?>
<!-- Generator: Adobe Illustrator 26.3.1, SVG Export Plug-In . SVG Version: 6.00 Build 0)  -->
<svg version="1.1" id="Ebene_1" xmlns="http://www.w3.org/2000/svg" xmlns:xlink="http://www.w3.org/1999/xlink" x="0px" y="0px"
	 viewBox="0 0 142.8 132.8" style="enable-background:new 0 0 142.8 132.8;" xml:space="preserve">
<style type="text/css">
	.st0{fill:#5B5B5B;}
	.st1{fill:#313131;}
	.st2{fill:#FFFFFF;}
	.st3{fill:#1C1C1C;}
</style>
<g id="_x23_e85984ff">
	<path class="st0" d="M1,15.7c7.7-5,15.4-10,23-15c0,35.4,0,70.9,0,106.3c-3,2-6.1,3.9-9.1,5.9c-3.9,2.4-7.7,4.9-11.5,7.5
		c-0.7,0.5-1.6,1-2.4,1.3C1,86.4,1.1,51,1,15.7z"/>
</g>
<g id="_x23_e51050ff">
	<path class="st1" d="M24,0.7c33.9,0,67.8,0,101.6,0c3.5,0,6.9,2.8,7.2,6.4c0.1,6.3-0.1,12.7,0.1,19.1c0.1,24.3,0,48.6,0,72.9
		c-0.1,2.7,0.1,5.3-0.1,8c-11.3,0.1-22.7,0-34,0c-23.6,0-47.2,0-70.8,0c-1.3,0-2.7,0-4-0.1C24,71.6,24,36.2,24,0.7 M70.6,22.8
		c-2.3,6.5-4,13.2-6.1,19.7c-3.9,12.8-7.8,25.6-11.7,38.4c-0.4,1-0.7,2.1-0.8,3.1c3.7,0.1,7.4,0.1,11.1,0c1.4-4.9,2.9-9.8,4.2-14.8
		c0.1-0.4,0.3-0.9,0.5-1.3c7,0,14-0.1,21.1,0.1c1.7,5.3,3.3,10.7,5.1,16c3.8,0,7.6,0,11.3,0c-2.2-7.5-4.8-15-7.1-22.4
		C94,48.7,89.9,35.7,85.7,22.8C80.5,22.7,75.5,22.7,70.6,22.8z"/>
	<path class="st1" d="M77.9,30.8c0.7,1.7,1,3.6,1.6,5.4c2.1,7.6,4.4,15.2,6.5,22.9c-5.3,0.1-10.5,0.1-15.8,0
		C72.6,49.6,75.4,40.2,77.9,30.8z"/>
</g>
<g id="_x23_ffffffff">
	<path class="st2" d="M70.6,22.8c5-0.1,10-0.1,15,0c4.2,12.9,8.3,25.9,12.5,38.8c2.3,7.5,4.9,14.9,7.1,22.4c-3.8,0.1-7.6,0-11.3,0
		c-1.8-5.3-3.4-10.7-5.1-16c-7-0.2-14,0-21.1-0.1c-0.2,0.4-0.3,0.8-0.5,1.3C65.8,74.1,64.4,79,63,84c-3.7,0.1-7.4,0.1-11.1,0
		c0.2-1.1,0.5-2.1,0.8-3.1c3.9-12.8,7.8-25.6,11.7-38.4C66.5,36,68.3,29.3,70.6,22.8 M77.9,30.8c-2.5,9.4-5.3,18.8-7.7,28.2
		c5.3,0.1,10.5,0.1,15.8,0c-2.1-7.6-4.3-15.2-6.5-22.9C78.9,34.4,78.6,32.5,77.9,30.8z"/>
</g>
<g id="_x23_770829ff">
	<path class="st3" d="M133,26.2c3-0.4,6.1-0.2,9.1-0.1c0.2,8,0,16,0.1,24c0,25.5,0,51,0,76.6c0,1.9,0.1,3.8-0.1,5.7
		c-39.4,0.1-78.7,0-118.1,0c-2.3,0-4.9-0.2-6.7-1.9c-1.4-1.3-2.4-3-2.4-5c0-4.2,0-8.4,0-12.6c3-2,6.1-3.9,9.1-5.9
		c1.3,0.1,2.7,0.1,4,0.1c23.6,0,47.2,0,70.8,0c11.3,0,22.7,0.1,34,0c0.2-2.7,0-5.3,0.1-8C133,74.8,133.1,50.5,133,26.2z"/>
</g>
</svg>
