<?xml version="1.0" encoding="utf-8"?>
<!-- Generator: Adobe Illustrator 26.3.1, SVG Export Plug-In . SVG Version: 6.00 Build 0)  -->
<svg version="1.1" id="b" xmlns="http://www.w3.org/2000/svg" xmlns:xlink="http://www.w3.org/1999/xlink" x="0px" y="0px"
	 viewBox="0 0 100 100.8" style="enable-background:new 0 0 100 100.8;" xml:space="preserve">
<style type="text/css">
	.st0{fill:#313131;}
</style>
<g id="c">
	<g>
		<g>
			<path class="st0" d="M50,100C22.4,100,0,77.6,0,50S22.4,0,50,0s50,22.4,50,50S77.6,100,50,100 M50,5.3C25.4,5.3,5.3,25.4,5.3,50
				s20,44.7,44.7,44.7s44.7-20,44.7-44.7S74.6,5.3,50,5.3"/>
			<path class="st0" d="M26.6,32.1l18.5,44.4c0.2,0.5,0.8,0.8,1.3,0.8h8.2c0.5,0,0.8-0.4,0.6-0.8l-18-44.9c-0.1-0.2-0.3-0.4-0.6-0.4
				h-9.4C26.7,31.3,26.4,31.7,26.6,32.1"/>
			<path class="st0" d="M63.4,31.3h9.4c0.5,0,0.8,0.4,0.6,0.9L61.1,61.5c-0.2,0.5-0.9,0.5-1.1,0l-4.2-10.6c-0.2-0.4-0.2-1.1,0-1.5
				l7.1-17.7C62.9,31.5,63.1,31.3,63.4,31.3"/>
		</g>
	</g>
</g>
</svg>
